<svg width="61" height="32" viewBox="0 0 61 32" fill="none" xmlns="http://www.w3.org/2000/svg">
<g clip-path="url(#clip0_5063_56254)">
<path fill-rule="evenodd" clip-rule="evenodd" d="M60.1649 15.1489C60.753 8.16401 54.8987 6.31909 51.4452 9.05021C49.1008 10.9059 48.3569 14.8669 49.3801 17.5041C50.6637 20.8152 54.9363 22.5474 59.3754 20.3856V17.6679C57.0605 19.016 52.1434 19.4242 52.8014 15.071C55.0008 15.071 57.9682 15.1489 60.1649 15.1489ZM56.6147 12.4795H53.1317C54.0931 9.93373 56.6067 9.96058 56.6147 12.4795Z" fill="#001689"/>
<path fill-rule="evenodd" clip-rule="evenodd" d="M35.1615 0C37.1944 0 38.8406 1.62471 38.8406 3.63075C38.8406 5.63679 37.1944 7.2615 35.1615 7.2615C33.1286 7.2615 31.4824 5.63679 31.4824 3.63075C31.4824 1.62471 33.1286 0 35.1615 0Z" fill="#FF671D"/>
<path fill-rule="evenodd" clip-rule="evenodd" d="M35.9887 8.3623C36.8937 8.3623 37.6295 9.09544 37.6295 10.0031V20.3932C37.6295 20.9759 37.8819 21.4593 38.4593 21.4593H34.705C33.8 21.4593 33.0642 20.7262 33.0642 19.8185V9.42843C33.0642 8.84569 32.8117 8.3623 32.2344 8.3623H35.9887Z" fill="#001689"/>
<path fill-rule="evenodd" clip-rule="evenodd" d="M16.2873 21.457C15.71 21.457 15.3286 20.9737 15.1729 20.3909L11.4159 6.25193C11.3112 5.85717 10.954 5.58057 10.5431 5.58057H7.06814H7.04666H5.84089C5.84089 5.58057 6.52031 5.65039 5.53474 8.38688L1.21383 20.3963C1.00436 20.9763 0.58006 21.4597 0 21.4597H2.2907C2.97818 21.4597 3.59315 21.0274 3.82679 20.3828L4.9708 17.2167C4.98959 17.163 5.04062 17.1281 5.09433 17.1281H9.64082C9.6999 17.1281 9.75361 17.1683 9.76972 17.2274L10.5727 20.2459C10.7633 20.9602 11.4105 21.4597 12.149 21.4597H16.2873V21.457ZM5.76569 15.0092L7.58644 9.96862C7.63209 9.84508 7.80933 9.85314 7.84156 9.97936L9.1816 15.0173C9.20309 15.1005 9.14132 15.1838 9.0527 15.1838H5.89191C5.8006 15.1838 5.73615 15.0925 5.76838 15.0065L5.76569 15.0092Z" fill="#001689"/>
<path fill-rule="evenodd" clip-rule="evenodd" d="M31.7911 8.3625H30.7786V7.60788C30.7786 7.10839 30.3758 6.70557 29.8763 6.70557H25.3835C25.9609 6.70557 26.2133 7.19164 26.2133 7.77438V8.3625H25.2009C25.0881 8.3625 24.9941 8.4538 24.9941 8.56928V10.7096C24.9941 10.8224 25.0854 10.9164 25.2009 10.9164H26.2133V19.8214C26.2133 20.7264 26.9465 21.4622 27.8542 21.4622H31.6084C31.0311 21.4622 30.7786 20.9761 30.7786 20.3934V10.9164H31.7911C31.9038 10.9164 31.9978 10.8251 31.9978 10.7096V8.56928C31.9978 8.45649 31.9065 8.36518 31.7937 8.36518L31.7911 8.3625Z" fill="#001689"/>
<path fill-rule="evenodd" clip-rule="evenodd" d="M20.1272 11.6605C21.2229 10.9435 22.853 10.8065 24.4831 11.4108V8.2258C21.7224 6.98512 18.9698 7.26441 17.1168 8.73604C14.2434 11.016 13.623 15.7961 15.8036 18.8065C17.4095 21.022 20.4656 22.3245 24.4831 20.7374V17.5121C22.1064 18.2882 20.2991 17.6518 19.3511 16.5722C18.0594 15.1033 18.4273 12.7723 20.1272 11.6605Z" fill="#001689"/>
<path fill-rule="evenodd" clip-rule="evenodd" d="M48.3163 8.36501C47.935 8.36501 47.5939 8.60402 47.465 8.96118L45.0347 15.7017L43.2542 9.02563C43.1495 8.63087 42.7896 8.35427 42.3815 8.35695L37.7168 8.36232C38.2915 8.36232 38.6701 8.84839 38.8259 9.42845L41.7477 20.3717C42.0377 21.4567 41.2455 21.454 41.2455 21.454H42.035H42.4405H42.846L44.9246 21.4513C45.3005 21.4513 45.6389 21.215 45.7651 20.8605L46.4902 18.8464L49.8846 9.43382C50.0941 8.85108 50.5184 8.36769 51.0931 8.37038L48.3163 8.36232V8.36501Z" fill="#001689"/>
<path fill-rule="evenodd" clip-rule="evenodd" d="M34.9263 30.8988C34.7679 31.0492 34.6229 31.2049 34.4618 31.3392C34.1556 31.5943 33.8146 31.7742 33.4144 31.836C32.9525 31.9058 32.2328 31.64 32.0717 31.1297C31.9831 30.8531 31.9589 30.5712 31.9723 30.2811C31.9992 29.65 32.1496 29.0378 32.3187 28.4335C32.6544 27.2304 32.9955 26.03 33.3365 24.8296C33.4413 24.4671 33.5433 24.1019 33.6669 23.7447C33.7259 23.5728 33.8172 23.409 33.9193 23.2586C34.0294 23.0975 34.1771 22.9847 34.3973 23.0545C34.6336 23.1297 34.7867 23.3123 34.8109 23.5433C34.8377 23.7984 34.7464 24.0294 34.6766 24.2657C34.2953 25.5279 33.9032 26.7846 33.5326 28.0495C33.3688 28.6108 33.2452 29.1828 33.119 29.7521C33.0599 30.0206 33.0331 30.2999 33.0761 30.5765C33.1029 30.7377 33.17 30.7914 33.3339 30.8075C33.4816 30.8236 33.6158 30.7806 33.7367 30.7054C34.1341 30.4503 34.4483 30.1093 34.6873 29.7064C34.7813 29.548 34.8109 29.3493 34.8511 29.164C35.0203 28.3771 35.3641 27.6682 35.7911 26.9968C36.0193 26.6369 36.2744 26.2986 36.6021 26.0193C36.8223 25.8313 37.0613 25.6756 37.3406 25.5923C37.875 25.4365 38.3422 25.6165 38.5786 26.218C38.7719 26.7041 38.6887 27.1767 38.4631 27.6279C38.1865 28.1757 37.7864 28.6135 37.2412 28.9062C36.97 29.0512 36.6773 29.1237 36.3657 29.0807C36.3496 29.0807 36.3335 29.078 36.3174 29.078C36.0757 29.0646 36.0005 29.1129 35.9468 29.3493C35.8689 29.6796 35.8313 30.0126 35.928 30.3456C36.0327 30.7081 36.304 30.8961 36.6799 30.8827C37.0479 30.8692 37.3835 30.7484 37.6977 30.5712C38.1865 30.2972 38.6001 29.9401 38.8874 29.4567C38.9733 29.3144 39.0029 29.1371 39.0566 28.976C39.3412 28.1274 39.7118 27.3244 40.2812 26.6289C40.5685 26.2771 40.8988 25.979 41.3231 25.8018C41.7931 25.6057 42.2362 25.6594 42.6444 25.9683C42.6927 26.0059 42.7249 26.0059 42.7733 25.9736C42.8995 25.8877 43.0445 25.8689 43.1895 25.8984C43.4849 25.9575 43.638 26.2261 43.544 26.5242C43.4043 26.9646 43.2647 27.4077 43.1197 27.8454C42.8968 28.5087 42.6685 29.1693 42.443 29.8327C42.3758 30.0287 42.3302 30.2328 42.3731 30.4423C42.4107 30.6141 42.5101 30.6705 42.6793 30.6168C42.9854 30.5201 43.1976 30.3026 43.4044 30.0717C43.732 29.7064 43.9092 29.2714 44.0301 28.8041C44.2154 28.0952 44.4114 27.3889 44.6074 26.6826C44.645 26.5456 44.6961 26.406 44.7632 26.2798C44.8626 26.0837 45.0264 25.9656 45.2546 25.9522C45.5823 25.9334 45.7622 26.1428 45.6897 26.4651C45.6548 26.6289 45.6199 26.79 45.5984 26.9673C45.6252 26.9431 45.6521 26.9189 45.6763 26.8948C46.0791 26.4731 46.5141 26.0945 47.0646 25.8716C47.3359 25.7615 47.6152 25.7185 47.9025 25.7964C48.3375 25.9172 48.5578 26.3415 48.5792 26.7202C48.6007 27.0532 48.4906 27.362 48.3939 27.6735C48.1549 28.447 47.9186 29.2177 47.6877 29.9938C47.6447 30.1388 47.6259 30.2972 47.6205 30.4503C47.6125 30.6866 47.7387 30.7726 47.9643 30.692C48.2167 30.6034 48.4154 30.4396 48.5954 30.2489C48.6544 30.1871 48.7108 30.12 48.7645 30.0555C48.9149 29.8729 49.0035 29.6715 49.0331 29.4245C49.0975 28.8551 49.2963 28.3207 49.5487 27.8078C49.8387 27.2251 50.169 26.6692 50.6229 26.1965C50.8861 25.9226 51.1922 25.7078 51.5708 25.6192C52.3308 25.4392 52.9539 25.9441 52.9351 26.7309C52.927 27.0962 52.7954 27.4238 52.6155 27.7353C52.3926 28.1193 52.1267 28.4711 51.7615 28.7343C51.4634 28.9518 51.1277 29.0834 50.7572 29.1022C50.6524 29.1076 50.5477 29.0888 50.443 29.0861C50.3033 29.0807 50.2577 29.1103 50.2039 29.2445C50.0831 29.5534 50.0562 29.8783 50.0938 30.2059C50.1046 30.2972 50.1207 30.3885 50.1476 30.4745C50.2281 30.7323 50.3892 30.8558 50.6605 30.8773C51.1439 30.9176 51.5762 30.7618 51.9844 30.5309C52.4463 30.2731 52.833 29.924 53.1392 29.4997C53.2788 29.3036 53.3594 29.0592 53.4426 28.8283C53.6977 28.1113 53.875 27.3728 54.0495 26.6343C54.0844 26.4866 54.1408 26.3389 54.208 26.2019C54.3073 25.9898 54.4873 25.9119 54.7236 25.9575C54.9492 26.0005 55.0727 26.1321 55.0995 26.3657C55.0995 26.3872 55.1049 26.4114 55.1103 26.4409C55.1264 26.4329 55.1371 26.4275 55.1452 26.4194C55.4943 25.9844 55.9562 25.74 56.4906 25.6165C56.6867 25.5708 56.88 25.5493 57.068 25.646C57.2264 25.7293 57.3231 25.8528 57.3177 26.0381C57.3124 26.2207 57.213 26.3389 57.0573 26.4114C56.872 26.4973 56.684 26.5752 56.4987 26.6584C55.7172 27.0075 55.1855 27.5983 54.831 28.3637C54.4953 29.0888 54.2536 29.8434 54.071 30.6195C54.0066 30.8907 53.9394 31.1646 53.8239 31.4171C53.644 31.8118 53.1875 31.7205 52.9915 31.5218C52.927 31.4574 52.9082 31.3419 52.876 31.2479C52.8652 31.2157 52.876 31.1781 52.876 31.1405C52.6853 31.2452 52.5054 31.3526 52.3174 31.4466C51.8985 31.6561 51.4554 31.785 50.9854 31.8172C50.5853 31.8468 50.1986 31.7877 49.828 31.6292C49.5541 31.5111 49.3365 31.3258 49.2103 31.0465C49.205 31.0357 49.1969 31.025 49.1942 31.0223C49.025 31.1512 48.8639 31.2882 48.6893 31.4037C48.4074 31.5916 48.1039 31.7152 47.7575 31.7098C47.1586 31.7017 46.6511 31.2103 46.5974 30.6114C46.5625 30.2059 46.6457 29.8192 46.7639 29.4406C46.9814 28.7262 47.2123 28.0173 47.4352 27.3056C47.4675 27.1982 47.497 27.0908 47.5158 26.9807C47.5239 26.9243 47.5239 26.8303 47.4916 26.8088C47.4487 26.782 47.36 26.79 47.309 26.8169C47.1667 26.8921 47.0297 26.978 46.9008 27.072C46.4926 27.3728 46.1032 27.695 45.7783 28.0898C45.405 28.5436 45.1445 29.0539 44.9807 29.6178C44.8384 30.1146 44.6826 30.6061 44.5322 31.0975C44.4409 31.3956 44.1133 31.5916 43.8421 31.5138C43.7132 31.4762 43.6192 31.4036 43.5789 31.2721C43.5708 31.2479 43.5601 31.2237 43.5494 31.1996C43.4258 31.2882 43.3157 31.3795 43.1922 31.4547C42.9532 31.597 42.6981 31.6883 42.4134 31.6668C42.1234 31.6453 41.8736 31.5272 41.6776 31.3097C41.6158 31.2398 41.5782 31.1512 41.5299 31.0707C41.1486 31.5701 40.6786 31.8924 40.0072 31.734C39.5104 31.6158 39.1398 31.3473 39.0163 30.7994C38.9841 30.8263 38.9572 30.8478 38.9304 30.8692C38.4309 31.2962 37.8723 31.6158 37.2305 31.7742C36.6692 31.9112 36.116 31.8655 35.5896 31.6292C35.2754 31.4869 35.0284 31.264 34.9183 30.9149M40.0099 30.2059C40.018 30.2838 40.0233 30.3751 40.0368 30.4664C40.069 30.6651 40.1979 30.7511 40.3832 30.6813C40.4826 30.6463 40.5792 30.5846 40.6598 30.5174C40.8585 30.3509 41.0035 30.1388 41.1378 29.9186C41.3822 29.5131 41.5514 29.0754 41.7045 28.6296C41.8656 28.165 42.0213 27.6977 42.1717 27.2278C42.2093 27.1123 42.2362 26.978 42.2174 26.8625C42.1825 26.6423 41.8602 26.5 41.6561 26.6155C41.5138 26.696 41.3741 26.8034 41.2694 26.9297C40.8129 27.4668 40.4745 28.071 40.2731 28.7504C40.1335 29.2204 40.0395 29.7011 40.0099 30.2059ZM36.3255 28.122C36.3255 28.122 36.3389 28.1381 36.3443 28.1435C36.3819 28.1354 36.4248 28.1301 36.4624 28.1166C37.1606 27.8427 37.5715 27.3137 37.8025 26.6208C37.8293 26.5403 37.789 26.4866 37.7112 26.5054C37.6118 26.5295 37.5124 26.5725 37.4265 26.6289C37.0076 26.9109 36.7283 27.3083 36.5 27.7487C36.4383 27.8696 36.3845 27.9958 36.3255 28.1193M26.9747 28.2294C26.9398 28.5168 26.9263 28.8068 26.9693 29.0941C27.0284 29.4889 27.1653 29.8568 27.399 30.2086C27.6031 30.5121 27.8663 30.7403 28.21 30.8719C28.4087 30.9498 28.6101 30.9418 28.8142 30.9256C29.2036 30.8934 29.5608 30.7726 29.875 30.5389C30.1328 30.3483 30.3261 30.0985 30.5195 29.8488C30.6189 29.7225 30.7182 29.591 30.8337 29.4809C30.9143 29.403 31.019 29.3412 31.1237 29.3036C31.3278 29.2311 31.5292 29.3546 31.5614 29.5668C31.6044 29.8515 31.5373 30.1146 31.4218 30.3671C31.1345 30.9901 30.6215 31.4037 30.0039 31.7071C29.6763 31.8682 29.3164 31.9649 28.9512 31.9918C28.1053 32.0508 27.3318 31.8521 26.6981 31.2559C26.1717 30.7618 25.8951 30.1442 25.8119 29.4325C25.7045 28.5114 25.8548 27.6252 26.1637 26.7605C26.5611 25.646 27.1439 24.6416 27.9871 23.8038C28.4544 23.3392 28.9727 22.9364 29.5849 22.6813C30.0549 22.4852 30.549 22.4449 31.0405 22.6222C31.548 22.8021 31.8273 23.1861 31.9589 23.691C32.1415 24.4053 31.8918 24.9961 31.4003 25.5037C31.2365 25.6729 31.0297 25.7776 30.7853 25.783C30.5759 25.7857 30.4094 25.7078 30.3154 25.5171C30.2187 25.3291 30.259 25.1438 30.3906 24.9934C30.4873 24.8807 30.6162 24.7947 30.7343 24.7007C30.9653 24.5181 30.9948 24.2684 30.9545 24.0052C30.9223 23.7904 30.7397 23.6212 30.5087 23.5889C30.3127 23.5621 30.122 23.6104 29.9367 23.6749C29.5447 23.8118 29.2251 24.0616 28.9404 24.3543C28.022 25.3103 27.3721 26.4194 27.0526 27.7111C27.0203 27.8454 26.9908 28.0522 26.9693 28.2321L26.9747 28.2294ZM57.6266 31.7232C57.264 31.7125 56.9149 31.6588 56.6034 31.452C56.2973 31.2479 56.1496 30.9552 56.1308 30.598C56.112 30.2811 56.1845 29.9777 56.3161 29.6876C56.3966 29.5104 56.5228 29.3896 56.735 29.403C56.9069 29.4137 57.0223 29.5373 57.0331 29.7091C57.0411 29.8514 57.0465 29.9992 57.0814 30.1388C57.1512 30.41 57.3365 30.5685 57.6158 30.5846C58.0885 30.6114 58.5128 30.496 58.8135 30.0985C58.929 29.9481 59.0042 29.7736 59.0257 29.5856C59.0633 29.2499 58.9075 29.0163 58.5343 28.8525C58.2362 28.7236 57.93 28.6108 57.6346 28.4765C57.3688 28.3556 57.1271 28.1972 57.0116 27.9152C56.8344 27.4802 56.9525 27.0962 57.2506 26.7578C57.5433 26.4248 57.9354 26.2395 58.3409 26.0891C58.6981 25.9548 59.0633 25.8474 59.4446 25.7991C59.6084 25.7776 59.7723 25.7857 59.9334 25.8394C60.2234 25.9387 60.2986 26.3228 60.0784 26.5779C59.9414 26.7363 59.7588 26.8061 59.5574 26.8303C59.1439 26.876 58.7545 26.9968 58.3839 27.1848C58.3248 27.2143 58.2684 27.2466 58.2174 27.2895C58.1368 27.3567 58.1341 27.4345 58.2147 27.499C58.2926 27.5607 58.3839 27.6118 58.4752 27.6547C58.7625 27.789 59.066 27.8991 59.3426 28.0549C59.7132 28.2643 59.9602 28.5866 60.0515 29.0082C60.1428 29.4406 60.0811 29.8595 59.9173 30.2623C59.5547 31.1432 58.8646 31.5836 57.9461 31.7071C57.8951 31.7125 57.8414 31.7232 57.7904 31.7259C57.7367 31.7286 57.6857 31.7259 57.6319 31.7259M50.5369 28.1542C50.5987 28.1381 50.6309 28.1354 50.6605 28.1247C51.3641 27.8535 51.7857 27.3271 52.014 26.6289C52.0435 26.5376 52.0032 26.4866 51.9119 26.5107C51.8179 26.5349 51.7266 26.5779 51.646 26.6316C51.1519 26.9673 50.8485 27.4533 50.6041 27.9824C50.5826 28.028 50.5665 28.0764 50.5369 28.1542Z" fill="#FF671D"/>
</g>
<defs>
<clipPath id="clip0_5063_56254">
<rect width="60.2054" height="32" fill="white"/>
</clipPath>
</defs>
</svg>
